<svg xmlns="http://www.w3.org/2000/svg" viewBox="0 0 140 180" width="140" height="180">
  <ellipse cx="75" cy="175" rx="45" ry="5" fill="#000000" opacity="0.35" />
  <path
    d="M 35 25 L 35 155 L 105 155 L 105 25 L 88 25 L 88 50 L 52 50 L 52 25 Z"
    fill="#AAB001"
    stroke="#000000"
    stroke-width="2.5"
    stroke-linejoin="round"
  />
  <path
    d="M 35 25 L 52 25 L 52 50 L 35 50 Z"
    fill="#AAB002"
    stroke="#000000"
    stroke-width="2.5"
    stroke-linejoin="round"
  />
  <path
    d="M 88 25 L 105 25 L 105 50 L 88 50 Z"
    fill="#AAB002"
    stroke="#000000"
    stroke-width="2.5"
    stroke-linejoin="round"
  />
  <rect
    x="35"
    y="50"
    width="17"
    height="5"
    fill="#AAB001"
    stroke="#000000"
    stroke-width="2.5"
  />
  <rect
    x="88"
    y="50"
    width="17"
    height="5"
    fill="#AAB001"
    stroke="#000000"
    stroke-width="2.5"
  />
  <path
    d="M 52 25 L 70 32 L 88 25 L 88 45 L 52 45 Z"
    fill="#AAB002"
    stroke="#000000"
    stroke-width="2.5"
    stroke-linejoin="round"
  />
  <rect x="38" y="148" width="64" height="5" fill="#AAB003" opacity="0.95" />
</svg>
